<?xml version="1.0" encoding="utf-8"?>
<!-- Generator: Adobe Illustrator 24.2.1, SVG Export Plug-In . SVG Version: 6.00 Build 0)  -->
<svg version="1.1" id="Layer_1" xmlns="http://www.w3.org/2000/svg" xmlns:xlink="http://www.w3.org/1999/xlink" x="0px" y="0px"
	 viewBox="0 0 535.7 401.9" style="enable-background:new 0 0 535.7 401.9;" xml:space="preserve">
<style type="text/css">
	.st0{fill:#FFFFFF;}
	.st1{fill:#FF671B;}
</style>
<g>
	<path d="M461.5,342.3h-2.6V341h6.6v1.3h-2.6v7h-1.3V342.3z M467.2,341h2.1l2.5,6.4l2.5-6.4h2.1v8.4h-1.3v-7h0l-2.8,7h-0.9l-2.8-7h0
		v7h-1.3V341z"/>
	<path class="st0" d="M257.6,91.8c-0.9,2.7-1.9,5.1-2.8,7.2v-9.8C255.7,90.3,256.7,91.1,257.6,91.8z M252,78.7
		c0.1-0.4,0.3-0.8,0.5-1.2c0.9-1.7,1.9-2.5,3.1-2.2c1.3,0.2,3,2.2,4.4,9.1c0.9-3.1,1.9-6.5,2.8-10.1c-3.2-1.9-6.8-5.3-6.9-9.7
		c-2.6,4.7-4.5,9.4-6,14h1.1C251.3,78.5,251.7,78.6,252,78.7z M264.8,66.8c0.9-3.1,1.9-6.1,3-8.8c-1.4-1.4-2.9-3.3-3.9-5.5
		c-1.6,2-3,4-4.3,6C260.8,58.8,262.6,60.7,264.8,66.8z M95.2,145.9c0.9,1.9,4.8,2.7,9.8,3c-0.6-0.9-1-1.9-1.2-3H95.2z M277.2,38.9
		c-2.4,2-4.7,4.1-6.8,6.3c0.3,1.2,0.5,2.8,0.7,4.9C273,45.9,275.1,42.2,277.2,38.9z M342.2,395.6c-1.8-1.1-8.2-3.8-13.7-5.5
		c-1.2,0.7-3.7,3.4-4.2,6c5.9,0.2,17.1,0.7,17.2,0.7C342.5,396.9,342.9,396.1,342.2,395.6z M354.2,70.1l4.8,11.2
		c-11.3,1.3-33.4-2-44.3-4.3c1.8-2.4,3.9-4.5,6.2-6.7l0.1-0.1c0.6-0.6,0.9-1.5,0.7-2.4c-0.4-1.3-1.7-2-3-1.6
		c-1.8,0.5-3.6,1.3-5.2,2.3c-0.8,0.5-1.6,1.1-2.4,1.6c-0.7,0.6-1.5,1.2-2.2,1.9c-2.8,2.7-5,6-6.5,9.5c-1.6,3.5-2.5,7.2-2.9,10.9
		c-0.2,1.8-0.2,3.7-0.2,5.5c0.1,1.9,0.3,3.6,0.7,5.6c0.2,0.9,0.9,1.6,1.9,1.8c1.3,0.2,2.5-0.6,2.8-1.9l0-0.2
		c0.3-1.5,0.6-3.2,0.9-4.7c0.3-1.6,0.7-3.2,1.1-4.7c0.5-1.7,1-3.4,1.6-5c25.2,40.7,58,39.5,65.4,40.5c0.1,0,1.1,0.1,2,0.2l2.7,9.5
		c-69.5,96.6-111,83.7-111,83.7l0.1-14.8c3.4-2.5,11-12.4,9.1-15.6c-0.6-1-2.9-2.2-5.5-0.2c-11.9,9.1-26.7,16.3-57.2,31.5
		c-5.7,2.6-10.1,4.7-11.8,5.4c-5.3-11.6-33.9-70.1-34.6-71.2c-3.9-6.5-13.1-5.8-28.8-7.8c-8.3-1.1-22.1-1.4-26-4.1h66.1
		c8.2,15.7,30.7,61.1,30.8,61.1c20.8-11.5,37.3-20.9,61.4-35.3c0.1,0,0.2,0,0.3-0.1c0.4-0.1,0.8-0.1,1.2-0.2
		c0.9-0.1,1.8-0.1,2.7-0.1c1.9,0.1,3.6,0.2,5.3,0.4l0.4,0c1.5,0.1,3-0.7,3.6-2.1c0.9-1.9,0.1-4.1-1.7-5c-2.5-1.2-4.8-1.7-7.3-1.8
		c-1.3-0.1-2.5-0.1-3.9,0c-0.7,0.1-1.4,0.1-2.2,0.3c-0.8,0.2-1.5,0.3-2.2,0.6c-0.3,0.1-0.6,0.3-0.9,0.4c-4.4-5.6-7.9-12.3-10.6-18.3
		h14.9c2.1,0,3.9-1.7,3.9-3.9v-29.6c0-2.1-1.7-3.9-3.9-3.9h-8.9c0.6-0.2,1.2-0.4,1.9-0.7c4.7-2.1,7.3-5.4,7.7-9.5
		c0.2-1.9-0.3-3-1.4-3.5c-0.7-0.3-2.5-1-8.6,5.8c0.9-2.3,1.9-4.7,2.8-7.4c1.2-0.3,3.4-0.9,5.6-2.1c4.5-2.4,7-5.8,7.1-10
		c0.1-1.9-0.5-3-1.6-3.4c-0.7-0.2-2.6-0.8-8.3,6.5c0.9-3.1,1.8-6.4,2.6-9.9c0.1-0.4,0.2-0.8,0.3-1.2c1.3-0.2,3.3-0.7,5.3-1.6
		c4.7-2,7.4-5.3,7.9-9.4c0.2-1.9-0.2-3-1.3-3.5c-0.7-0.3-2.7-1.1-9.7,6.9c1.1-3.5,2.3-6.7,3.6-9.6c0.9,0,3.7-0.1,6.6-1
		c4.9-1.5,8-4.4,8.9-8.4c0.4-1.8,0.1-3-0.9-3.6c-0.7-0.4-2.7-1.5-11.6,6.8c2.3-4.6,4.8-8.4,7.2-11.6c0.6,0.1,1.4,0.1,2.4,0.1
		c1.1,0,2.5-0.1,3.9-0.3c5-0.8,8.5-3.3,9.9-7.2c0.7-1.8,0.5-3-0.4-3.7c-0.6-0.4-2-1.4-8.4,2.6c2.3-2.2,4.3-3.8,5.6-4.7
		c21-10.5,49.4-17.3,87.3-17.4c29.7-0.1,39,5.2,39,9.3c0,13.3-38.7,37.9-64,44.8C355.7,63.4,351.4,64.3,354.2,70.1z M329.3,36.1
		c-0.3-1-1-1.8-2.1-1.8c-1.2-0.1-2.2,0.8-2.3,2c-0.2,1.5,0,3-0.3,4.5c-0.2,1.4-0.7,2.7-1.4,3.9c-1.4,2.2-3.8,3.4-6.4,3.3
		c-3.3-0.1-6.3-2.1-8.4-4.6c-0.9-1.1-1.9-2.7-3.6-1.7c-1,0.6-1.1,1.8-0.8,2.8c1.6,5.4,6.9,9.5,12.5,9.9c6.3,0.5,11.8-3.6,13.3-9.7
		C330.6,42,330.3,38.9,329.3,36.1z M360.4,38.8c1.1-2.9,1.2-6.2,0.3-9.2c-0.3-0.9-0.6-2-1.4-2.5c-1-0.7-2.4-0.4-3.1,0.5
		c-0.8,1.1-0.4,2.8-0.6,4c-0.2,1.4-0.5,2.9-1.1,4.1c-1.4,2.7-4,4.1-7,3.9c-3.3-0.2-6.5-2.1-8.7-4.5c-1-1.1-1.8-2.8-3.6-2
		c-1.2,0.5-1.4,1.8-1,2.9c1.5,5.4,6.5,9.4,11.9,10.4C352.1,47.4,358.2,44.5,360.4,38.8z M457.8,374.5c0.9-0.2,1.3-1.1,0.4-1.4
		c-1.6-0.6-15.9-2.8-16-2.6c-1.9,4.1-1.6,8.4-1.6,8.4S457.7,374.5,457.8,374.5z M421.4,383.3l9.5-2.2c-0.3-2.6-0.7-8.2,1.1-11.5
		c0,0-7.6-1-7.9-1c-0.2,0.3-0.3,0.6-0.5,0.8c-1.1,2.1-1.8,4.7-2.1,7.1c-0.1,0.7-0.2,1.4-0.2,2.1c0,0.3,0,0.7,0,1c0,0.9,0,1.8,0,2.5
		C421.3,382.6,421.3,383,421.4,383.3z M402.5,386c0.1,0.6,0.2,1.1,0.2,1.5c0.1,0.3,0.1,0.5,0.1,0.5s6.8-1.6,9.3-2.4
		c-1-4-0.9-11.7,1.9-17.9l-8.7-0.8c-1.6,2.9-2.5,6-2.9,9c-0.2,1.2-0.3,2.3-0.3,3.4c-0.1,1.6,0,3.2,0.1,4.4
		C402.3,384.6,402.4,385.4,402.5,386z M291.3,351.4c-2.8-0.7-8.7-3.4-12.1-6c-3.9,4.1-10.9,18.2-10.6,19.2c0.4,1,11,7.4,11.8,7.8
		c9.1-12.5,17.3-15.6,17.3-15.6C295.9,355.6,293.5,353.6,291.3,351.4z M479,150.6c-0.5,0.7-0.9,1.2-1.4,1.6c-1.7,1.4-3.7,1.5-4-0.5
		c-0.3-2.1,3.9-3.5,1.5-15.4c-1-5.1-3.2-10.5-3.3-10.7c-0.1-0.3-0.2-0.6,0.1-1c0.3-0.3,4.3-2.3,5.1-13.2c0.2-3.3,0.7-19.8-6.3-18.2
		c-4.1,0.9-1,8.1-1,12.4c0,4.4-1.7,5.9-6.7,11.9c-5.7,6.8,4.4,32.1,4.7,33.1c-8.8,15.2-22.5,38.7-26.5,43.2
		c-0.5,0.6-31.3-19.6-49-31.4c2.4,10.8,4.1,17.4,6.1,26.1c15.5,10.8,41.7,28.5,45.8,30.6l37.1-58.5c7-1.2,12.9-2.8,15.9-8.6
		l-14.5,0.1C481.3,152.2,480,151.6,479,150.6z M514.6,140.2l-32.8,0.1l-0.1-23.5c0.4-1.6,0.6-3.4,0.7-5.3c0.2-1.4,0.4-7.3-0.8-13
		l-0.1-17.7l32.8-0.1L514.6,140.2z M511.9,104.8c0-0.2-9.5-6.9-11.2-8c-1.3-0.7-2.1,0.3-2.7,1.6c0,0.1-5.8,13-14.3,25.3l-0.2,0.3
		c0,0,0.2,0.1,0.3,0.2c0.7,0.3,4.6,2.4,17.8-6.7c2.8-1.9,10.3-9.1,10.6-9.5C513,106.9,512.9,105.5,511.9,104.8z M519.3,91.1
		c0.7-0.5,1.2-1,1.6-1.5c0.2-0.3,0.8-0.9,0.9-1.6c0.1-0.5,0-0.9-0.3-1.4l0-0.1c-0.3-0.4-0.6-0.5-1.2-0.6c-0.4,0-0.8,0-1.2,0.1l0,5.1
		L519.3,91.1z M530.3,102c-0.2-0.6-0.5-0.9-1.2-1.2c-0.8-0.3-1.8-0.4-2.4-0.5c-0.8,0-1.7,0-2.7,0.1c-0.5,0.1-0.9,0.1-1.4,0.2
		l-1.5,0.2c-0.7,0.1-1.4,0.2-2,0.4l0.1,7.2c0.2,0,0.3-0.1,0.5-0.1c0.2,0,0.4-0.1,0.6-0.1c0.9-0.2,1.8-0.6,2.7-0.9l1.5-0.5
		c0.5-0.2,0.9-0.3,1.3-0.4c1-0.4,1.8-0.7,2.4-1.1c0.4-0.2,1.3-0.8,1.7-1.5c0.3-0.6,0.4-1,0.3-1.7L530.3,102z M522.2,117.3l-1.3-0.3
		c-0.6-0.1-1.1-0.2-1.6-0.3l0.1,6.5c0.4,0,0.8,0,1.2,0l1.5,0c0.4,0,0.8,0,1.2,0c0.5,0,1,0,1.4-0.1c0.3,0,0.7-0.1,1-0.1
		c0.8-0.2,1.4-0.4,1.8-0.8c0.4-0.4,0.6-0.7,0.7-1.4c0-0.6-0.1-0.9-0.5-1.4c-0.4-0.4-1-0.8-1.8-1.2c-0.6-0.3-1.4-0.6-2.3-0.8
		C523,117.5,522.6,117.4,522.2,117.3z M522.6,131.8c-0.4-0.1-0.7-0.1-1-0.1c-0.8,0-1.5,0.2-2,0.6c-0.4,0.3-0.7,0.7-0.7,1.1
		c-0.2,2,2.4,3.3,2.6,3.4c1.2,0.3,2,0.2,2.6-0.1c0.5-0.3,0.8-0.8,1-1.6C525.5,133.1,523.6,132,522.6,131.8z M283.2,337.7
		c0,0.4,6.8,4.1,11.8,3.6c0,0,11.1-16.9,19.6-29.9l-18.7,1.2C290.3,322.8,284.6,333.5,283.2,337.7z M294,370.7
		c-1.1,1.2-2.1,2.3-2.9,3.3c-0.5,0.7-1,1.3-1.3,1.8c-0.4,0.5-0.6,0.9-0.8,1.2c-0.2,0.3-0.3,0.5-0.3,0.5s6.1,3.4,8.4,4.5
		c1.9-3.6,7.2-9.1,13.5-11.8l-5.9-6.4c-3.1,1-5.9,2.8-8.1,4.7C295.6,369.2,294.7,369.9,294,370.7z M308.4,383.1
		c-0.2,0.2-0.5,0.4-0.7,0.7c-0.7,0.7-1.2,1.3-1.7,1.8c-0.3,0.4-0.5,0.7-0.7,1l9.2,5.5c1.2-2.7,4.2-7.1,7.7-8.4c0,0-4.9-5.8-5.1-6
		c-0.3,0.1-0.6,0.2-0.9,0.3c-2.2,0.8-4.4,2.2-6.3,3.8C309.4,382.2,308.9,382.6,308.4,383.1z M379.2,392c1,0.5,13.2-2,14.1-2.3
		c-1.8-15.5,2.2-23.4,2.2-23.4c-2.2,0.4-5.3,0.6-8.5,0.4c-2.5,1.4-8.7,3.4-13.1,3.8C373.9,376.3,378.3,391.5,379.2,392z
		 M371.7,362.2c0.2,0.3,7.8-1.6,11.2-5.4c0,0-5.5-31.9-8.4-49.1l-16.7,1C361.2,323.4,368.9,355.9,371.7,362.2z"/>
	<path class="st1" d="M247.6,108.6H7.2V85.7h240.4V108.6z M267.1,115.8H26.8v22.9h240.4V115.8z M409.1,296.2l-142.7,9.4l0.6-74.8
		c12.3,1.3,21.6-1.1,36-7.8c19.8-9.3,46.2-31.9,68.1-62.2l7.8-10.6c-5.2,32.8-35.5,71.3-49.6,92.5c-1,1.5-1.9,3.2-2.2,5
		c-0.1,0.9-0.3,2.4,0.8,2.8c0.7,0.3,1.6-0.1,2.2-0.4c0.9-0.6,1.7-1.5,2.5-2.3c0.9-1,1.9-2.1,2.7-3.2c2.9-3.6,5.8-6.9,8.6-10.6
		c20.3-29.2,34.3-50.6,40.1-76.5c0.2,0.9,0.4,1.8,0.5,2.6c5.3,29.1-2.4,40.9-11.4,57.9c-1.1,2.2-2.3,4.7-1.8,7.1
		c0.7,3.2,2.5,2.6,5.3-0.3c7-9,12.1-19.3,14.8-30.3L409.1,296.2z M283.6,270l1.1,16.6l14.9-1l-0.3-5.2l-9.6,0.6l-0.4-6.1l9.6-0.6
		l-0.3-5.2L283.6,270z M300.2,295.6l-0.3-5.2l-20.2,1.3l-1.4-21.4l-5.2,0.3l1.7,26.6L300.2,295.6z M316.4,267.8l1.1,16.6l14.9-1
		l-0.3-5.2l-9.6,0.6l-0.4-6.1l9.6-0.6l-0.3-5.2L316.4,267.8z M333,293.5l-0.3-5.2l-20.2,1.3l-1.4-21.4l-5.2,0.3l1.7,26.6L333,293.5z
		 M349.2,265.7l1.1,16.6l14.9-1l-0.3-5.2l-9.6,0.6l-0.4-6.1l9.6-0.6l-0.3-5.2L349.2,265.7z M365.8,291.3l-0.3-5.2l-20.2,1.3
		l-1.4-21.4l-5.2,0.3l1.7,26.6L365.8,291.3z M381.9,263.6l1.1,16.6l14.9-1l-0.3-5.2l-9.6,0.6l-0.4-6.1l9.6-0.6l-0.3-5.2L381.9,263.6
		z M373.1,290.9l25.4-1.7l-0.3-5.2l-20.2,1.3l-1.4-21.4l-5.2,0.3L373.1,290.9z M509.2,107c-0.6,0.7-1.8,1.9-3.3,3.4
		c-0.3-0.4-0.7-0.6-1.2-0.6c-0.8-0.1-1.7,0.2-2.2,0.6c-0.9,0.6-1.9,2.1-1.2,3.2c0.1,0.2,0.3,0.4,0.5,0.5c-4.4,3.6-9.9,7.3-14.1,7.5
		c1.7-1.9,3.2-4.2,4.7-6.6c0.3,0.4,0.6,0.7,1.1,0.8c1.2,0.4,2.6-0.3,3.4-1.2c0.6-0.7,1-1.9,0.6-2.8c-0.3-0.5-0.7-0.9-1.3-1
		c-0.5-0.1-0.9-0.1-1.4,0c2.6-4.9,4.6-9.4,5.5-11c2.1,1.2,7.6,5.5,9,6.6C509.4,106.6,509.3,106.9,509.2,107z M503.1,105.1
		c0-0.5-0.2-1-0.7-1.3c-0.2-0.1-0.4-0.2-0.6-0.2c-0.1,0-0.2,0-0.3,0c-0.1,0-0.2,0-0.3,0c-0.3,0-0.6,0.1-0.8,0.3
		c-0.3,0.1-0.5,0.3-0.7,0.5c-0.3,0.3-0.5,0.6-0.7,1c-0.2,0.4-0.3,0.8-0.4,1.2c-0.1,0.6,0.1,1.1,0.5,1.5c0.4,0.3,1,0.5,1.5,0.5
		c0.6,0,1.2-0.4,1.6-0.8c0.2-0.3,0.4-0.6,0.6-0.9c0-0.1,0.1-0.2,0.1-0.3C503.1,105.9,503.1,105.5,503.1,105.1z"/>
	<path d="M535.5,100.8l-0.2-0.6c-0.7-1.9-2-3.3-3.9-4.3l-0.1-0.1c-1.5-0.7-3.2-0.9-4.3-0.9c-1,0-2.1,0-3.5,0.1
		c-0.5,0.1-1.1,0.1-1.6,0.2l-0.8,0.1l0.3-0.2c0.3-0.2,0.6-0.5,0.9-0.7c0.9-0.7,1.6-1.4,2.2-2.1c0.7-0.8,1.5-2,1.9-3.5l0-0.1
		c0.3-1.7,0.1-3.3-0.9-4.8l-0.3-0.4c-1.1-1.3-2.5-2.1-4.3-2.3l-0.1,0c-0.5,0-1.1,0-1.6,0.1l0-4c0-2.7-2.3-4.9-5-4.9L482,73
		c-2.7,0-4.9,2.3-4.9,5l0.1,11c-0.5-0.5-1.1-1-1.8-1.3c-2.6-1.8-14.3-2-13.1,11.2c0.3,3,0.4,6.3,0,7.7c-2.2,8.7-15,5.8-1.9,42.5
		l-20.2,33.7l-50.7-33.4c-3.1-11.3-7.7-27.9-7.7-27.9c-47.4,1.9-66.4-36.6-66.6-36.8c0.5,0.1,9.2,2.3,26.7,4.2
		c7,0.7,14.3,1.4,21.3,1c2.9-0.2,7.1-1.1,6.6-4.8c-0.3-2.4-4.9-12.6-6.2-15.2c7.2-2.6,14.7-4.7,21.5-8.1c12.2-6,47.2-26.5,47.2-44.7
		c0-8.2-7.5-11.3-13.5-13c-20.4-5.8-68.7-6.4-106,6.6c-0.7,0.3-1.5,0.5-2.2,0.8c0.2-0.9,0.2-1.8,0.2-2.7c-0.1-1.9-0.8-2.9-1.9-3.2
		c-0.8-0.2-3.1-0.7-9.5,10.4c-0.8,0.4-1.7,0.8-2.5,1.1c1.2-3.6,0.9-5.3,0.2-6c-0.8-0.9-2.1-0.9-3.8,0c-4.4,2.3-5.3,6.6-5,10.4
		c-0.8,0.4-1.5,0.9-2.3,1.3c-0.3-1.6-0.9-2.4-1.5-2.7c-1.1-0.6-2.3-0.1-3.6,1.3c-1.9,2-2.6,4.2-2.6,6.3
		c-21.8,14.9-33.1,33.4-37.9,51H3.9c-2.1,0-3.9,1.7-3.9,3.9V112c0,2.1,1.7,3.9,3.9,3.9h15.7V142c0,2.1,1.7,3.9,3.9,3.9h64
		c1,9.3,15.5,8.9,29.4,9c6,1.2,13.4,1.7,21,2.4c16.9,1.7,21.6,2,25.1,8.1c1.4,2.7,23.2,51.4,31.8,68.6c1.7,3.5,5.7,4.9,9.4,3.7
		c8.7-2.9,36.8-18.1,53.7-26.2l-1.2,103.6l29.3-1.8l-9.8,18.9c-3.1,1.2-4.3,4.1-3.4,7.2c-2.2,3.4-9.5,16.6-13.4,23.9
		c-1.5,2.7-0.5,6,2.2,7.4c10.7,5.8,36.7,20.2,56.4,30.9v0c10,0.1,33.1,0.2,30.6,0.2c17.6,0.5-6.8-13.8-14.4-16.4
		c0.3-1.4,0.4-3-0.3-4c-1.4-1.9-5.9-1.2-5.9-1.2l-5.1-6.7c0,0,1.7-3.9-0.2-6.1c-1.9-2.2-6.3-1.6-6.3-1.6l-6.3-6.7
		c0,0,1.3-4.4-0.5-6.2c-1.9-1.8-6.3-0.5-6.3-0.5l-4.5-3.7l27.9-38.1l22.2-1.4l13.8,53.5c-1.4,3-0.4,6,2.4,7.7
		c0.7,4,4.3,18.8,6.3,26.9c0.7,3,3.7,4.8,6.7,4c19.6-4.9,86.6-21.5,89.7-22.4c12.9-3.6,1.1-10.8-24.9-13.8c0,0-1.7-4.8-4-5.2
		c-2.3-0.4-5.2,3.1-5.2,3.1l-8.3-1.5c0,0-1.4-4.1-4.3-4.4c-2.9-0.3-5.7,3.1-5.7,3.1l-9.2-0.7c0,0-2-4.2-4.6-4.2
		c-2.6-0.1-5,3.9-5,3.9l-5.8,0.3l-5.6-52.7l34.9-2.2l-18.4-102.8c14.2,9.4,36.9,24,37.8,24.5c1.9,1.1,4.3,2.6,6.6,2.2
		c2.2-0.4,3.9-2.8,5.1-4.5l36.6-58.7c9.4-1.8,14.8-6.1,17.8-13.6l9.2-0.1c2.7,0,4.9-2.3,4.9-5l0.2-6.2c0.3,0.1,0.5,0.2,0.7,0.2
		c0.8,0.2,1.7,0.3,2.4,0.3c0.5,0,1,0,1.4-0.1c0.8-0.2,1.5-0.4,2.1-0.8c1-0.7,2.4-2,2.9-4.4c0.7-3.3-1.1-6.1-3.7-7.5
		c0.3,0,0.5-0.1,0.8-0.1l0.1,0c1.1-0.2,2.8-0.8,4.2-2l0.1-0.1c1.4-1.3,2.2-2.8,2.4-4.7l0-0.4c0-1.9-0.6-3.6-1.9-5.1l-0.1-0.1
		c-0.9-1-2.1-1.8-3.5-2.4c-0.9-0.4-2-0.8-3.1-1.1l-0.3-0.1c0.1,0,0.3-0.1,0.4-0.1l1.5-0.5c0.5-0.1,0.9-0.3,1.3-0.5
		c1.3-0.5,2.4-0.9,3.3-1.5c1.1-0.6,2.5-1.6,3.5-3.2l0.1-0.1C535.7,104.8,535.9,102.9,535.5,100.8z M328.5,390.1
		c5.5,1.7,11.9,4.4,13.7,5.5c0.8,0.5,0.3,1.3-0.6,1.2c-0.1,0-11.3-0.5-17.2-0.7C324.8,393.6,327.3,390.8,328.5,390.1z M442.3,370.5
		c0.1-0.2,14.4,2.1,16,2.6c0.9,0.3,0.5,1.2-0.4,1.4c-0.1,0-17.1,4.4-17.1,4.4S440.4,374.6,442.3,370.5z M421.2,379.6
		c0-0.3,0-0.6,0-1c0-0.7,0.1-1.3,0.2-2.1c0.3-2.5,1-5.1,2.1-7.1c0.2-0.3,0.3-0.6,0.5-0.8c0.3,0,7.9,1,7.9,1
		c-1.7,3.3-1.3,8.9-1.1,11.5l-9.5,2.2c-0.1-0.3-0.1-0.7-0.2-1.2C421.2,381.4,421.2,380.6,421.2,379.6z M402.2,379.3
		c0-1.1,0.1-2.2,0.3-3.4c0.4-3,1.3-6.1,2.9-9l8.7,0.8c-2.8,6.3-3,13.9-1.9,17.9c-2.5,0.8-9.3,2.4-9.3,2.4s0-0.2-0.1-0.5
		c-0.1-0.3-0.1-0.8-0.2-1.5c-0.1-0.6-0.2-1.4-0.2-2.2C402.2,382.5,402.1,380.9,402.2,379.3z M277.2,38.9c-2.1,3.3-4.2,7-6.1,11.2
		c-0.1-2.1-0.4-3.7-0.7-4.9C272.5,43.1,274.7,41,277.2,38.9z M263.8,52.5c0.9,2.2,2.4,4.1,3.9,5.5c-1,2.8-2,5.7-3,8.8
		c-2.1-6.2-3.9-8.1-5.2-8.4C260.8,56.5,262.3,54.5,263.8,52.5z M255.9,64.5c0.2,4.4,3.7,7.8,6.9,9.7c-0.9,3.7-1.8,7-2.8,10.1
		c-1.4-7-3.1-8.9-4.4-9.1c-1.2-0.2-2.2,0.5-3.1,2.2c-0.2,0.4-0.4,0.8-0.5,1.2c-0.3-0.1-0.7-0.2-1-0.2h-1.1
		C251.3,73.9,253.3,69.2,255.9,64.5z M257.6,91.8c-0.9,2.7-1.9,5.1-2.8,7.2v-9.8C255.7,90.3,256.7,91.1,257.6,91.8z M7.2,108.6V85.7
		h240.4v22.9H7.2z M26.8,138.7v-22.9h240.4v22.9H26.8z M245.8,145.9c4.2,10.8,9.1,18.5,12.5,23.3c-15.8,9.1-31,18.3-45.2,25.8
		c-4-7.8-18.3-35.7-24.8-49H245.8z M95.2,145.9h8.6c0.2,1.1,0.6,2.1,1.2,3C100.1,148.6,96.1,147.8,95.2,145.9z M213.8,223.5
		c-5.7,2.6-10.1,4.7-11.8,5.4c-5.3-11.6-33.9-70.1-34.6-71.2c-3.9-6.5-13.1-5.8-28.8-7.8c-8.3-1.1-22.1-1.4-26-4.1h66.1
		c8.2,15.7,30.7,61.1,30.8,61.1c20.8-11.5,37.3-20.9,61.4-35.3c0.1,0,0.2,0,0.3-0.1c0.4-0.1,0.8-0.1,1.2-0.2
		c0.9-0.1,1.8-0.1,2.7-0.1c1.9,0.1,3.6,0.2,5.3,0.4l0.4,0c1.5,0.1,3-0.7,3.6-2.1c0.9-1.9,0.1-4.1-1.7-5c-2.5-1.2-4.8-1.7-7.3-1.8
		c-1.3-0.1-2.5-0.1-3.9,0c-0.7,0.1-1.4,0.1-2.2,0.3c-0.8,0.2-1.5,0.3-2.2,0.6c-0.3,0.1-0.6,0.3-0.9,0.4c-4.4-5.6-7.9-12.3-10.6-18.3
		h14.9c2.1,0,3.9-1.7,3.9-3.9v-29.6c0-2.1-1.7-3.9-3.9-3.9h-8.9c0.6-0.2,1.2-0.4,1.9-0.7c4.7-2.1,7.3-5.4,7.7-9.5
		c0.2-1.9-0.3-3-1.4-3.5c-0.7-0.3-2.5-1-8.6,5.8c0.9-2.3,1.9-4.7,2.8-7.4c1.2-0.3,3.4-0.9,5.6-2.1c4.5-2.4,7-5.8,7.1-10
		c0.1-1.9-0.5-3-1.6-3.4c-0.7-0.2-2.6-0.8-8.3,6.5c0.9-3.1,1.8-6.4,2.6-9.9c0.1-0.4,0.2-0.8,0.3-1.2c1.3-0.2,3.3-0.7,5.3-1.6
		c4.7-2,7.4-5.3,7.9-9.4c0.2-1.9-0.2-3-1.3-3.5c-0.7-0.3-2.7-1.1-9.7,6.9c1.1-3.5,2.3-6.7,3.6-9.6c0.9,0,3.7-0.1,6.6-1
		c4.9-1.5,8-4.4,8.9-8.4c0.4-1.8,0.1-3-0.9-3.6c-0.7-0.4-2.7-1.5-11.6,6.8c2.3-4.6,4.8-8.4,7.2-11.6c0.6,0.1,1.4,0.1,2.4,0.1
		c1.1,0,2.5-0.1,3.9-0.3c5-0.8,8.5-3.3,9.9-7.2c0.7-1.8,0.5-3-0.4-3.7c-0.6-0.4-2-1.4-8.4,2.6c2.3-2.2,4.3-3.8,5.6-4.7
		c21-10.5,49.4-17.3,87.3-17.4c29.7-0.1,39,5.2,39,9.3c0,13.3-38.7,37.9-64,44.8c-5.3,1.6-9.6,2.6-6.8,8.4l4.8,11.2
		c-11.3,1.3-33.4-2-44.3-4.3c1.8-2.4,3.9-4.5,6.2-6.7l0.1-0.1c0.6-0.6,0.9-1.5,0.7-2.4c-0.4-1.3-1.7-2-3-1.6
		c-1.8,0.5-3.6,1.3-5.2,2.3c-0.8,0.5-1.6,1.1-2.4,1.6c-0.7,0.6-1.5,1.2-2.2,1.9c-2.8,2.7-5,6-6.5,9.5c-1.6,3.5-2.5,7.2-2.9,10.9
		c-0.2,1.8-0.2,3.7-0.2,5.5c0.1,1.9,0.3,3.6,0.7,5.6c0.2,0.9,0.9,1.6,1.9,1.8c1.3,0.2,2.5-0.6,2.8-1.9l0-0.2
		c0.3-1.5,0.6-3.2,0.9-4.7c0.3-1.6,0.7-3.2,1.1-4.7c0.5-1.7,1-3.4,1.6-5c25.2,40.7,58,39.5,65.4,40.5c0.1,0,1.1,0.1,2,0.2l2.7,9.5
		c-69.5,96.6-111,83.7-111,83.7l0.1-14.8c3.4-2.5,11-12.4,9.1-15.6c-0.6-1-2.9-2.2-5.5-0.2C259.1,201.1,244.3,208.3,213.8,223.5z
		 M280.5,372.4c-0.8-0.4-11.5-6.8-11.8-7.8c-0.3-1,6.6-15.1,10.6-19.2c3.4,2.6,9.4,5.3,12.1,6c2.2,2.2,4.6,4.2,6.5,5.4
		C297.8,356.8,289.6,359.9,280.5,372.4z M317.2,377.6c0.2,0.2,5.1,6,5.1,6c-3.5,1.3-6.5,5.7-7.7,8.4l-9.2-5.5c0.2-0.3,0.4-0.6,0.7-1
		c0.4-0.6,1-1.2,1.7-1.8c0.2-0.2,0.4-0.4,0.7-0.7c0.5-0.5,1-0.9,1.5-1.4c1.9-1.6,4.1-3.1,6.3-3.8
		C316.5,377.8,316.9,377.7,317.2,377.6z M304.6,363.8l5.9,6.4c-6.3,2.7-11.5,8.2-13.5,11.8c-2.3-1.1-8.4-4.5-8.4-4.5
		s0.1-0.2,0.3-0.5c0.2-0.3,0.5-0.7,0.8-1.2c0.4-0.5,0.8-1.1,1.3-1.8c0.8-1,1.8-2.2,2.9-3.3c0.8-0.8,1.6-1.6,2.5-2.3
		C298.8,366.5,301.5,364.8,304.6,363.8z M295,341.3c-5,0.5-11.8-3.2-11.8-3.6c1.4-4.2,7.1-15,12.7-25.1l18.7-1.2
		C306.1,324.4,295,341.3,295,341.3z M395.5,366.3c0,0-4,7.9-2.2,23.4c-0.9,0.3-13.1,2.8-14.1,2.3c-0.9-0.5-5.4-15.7-5.2-21.4
		c4.3-0.4,10.5-2.4,13.1-3.8C390.2,366.9,393.3,366.7,395.5,366.3z M382.9,356.8c-3.4,3.8-11,5.7-11.2,5.4
		c-2.8-6.4-10.5-38.8-13.9-53.4l16.7-1C377.4,325,383,356.8,382.9,356.8z M409.1,296.2l-142.7,9.4l0.6-74.8
		c12.3,1.3,21.6-1.1,36-7.8c19.8-9.3,46.2-31.9,68.1-62.2l7.8-10.6c-5.2,32.8-35.5,71.3-49.6,92.5c-1,1.5-1.9,3.2-2.2,5
		c-0.1,0.9-0.3,2.4,0.8,2.8c0.7,0.3,1.6-0.1,2.2-0.4c0.9-0.6,1.7-1.5,2.5-2.3c0.9-1,1.9-2.1,2.7-3.2c2.9-3.6,5.8-6.9,8.6-10.6
		c20.3-29.2,34.3-50.6,40.1-76.5c0.2,0.9,0.4,1.8,0.5,2.6c5.3,29.1-2.4,40.9-11.4,57.9c-1.1,2.2-2.3,4.7-1.8,7.1
		c0.7,3.2,2.5,2.6,5.3-0.3c7-9,12.1-19.3,14.8-30.3L409.1,296.2z M481.3,160.6l-37.1,58.5c-4.1-2.1-30.3-19.7-45.8-30.6
		c-2.1-8.7-3.7-15.3-6.1-26.1c17.7,11.8,48.5,32,49,31.4c4-4.5,17.7-28,26.5-43.2c-0.4-1-10.4-26.3-4.7-33.1c5-6,6.7-7.5,6.7-11.9
		c0-4.4-3.1-11.5,1-12.4c7-1.5,6.6,15,6.3,18.2c-0.8,10.9-4.9,12.8-5.1,13.2c-0.3,0.4-0.2,0.7-0.1,1c0.1,0.3,2.3,5.6,3.3,10.7
		c2.4,11.9-1.8,13.3-1.5,15.4c0.3,2,2.3,1.9,4,0.5c0.4-0.4,0.9-0.9,1.4-1.6c0.9,1,2.2,1.6,3.6,1.6l14.5-0.1
		C494.2,157.8,488.3,159.4,481.3,160.6z M481.8,140.3l-0.1-23.5c0.4-1.6,0.6-3.4,0.7-5.3c0.2-1.4,0.4-7.3-0.8-13l-0.1-17.7l32.8-0.1
		l0.2,59.5L481.8,140.3z M520.3,86c0.6,0.1,0.9,0.2,1.2,0.6l0,0.1c0.3,0.5,0.4,0.8,0.3,1.4c-0.1,0.6-0.7,1.3-0.9,1.6
		c-0.4,0.5-0.9,1-1.6,1.5l-0.2,0.1l0-5.1C519.4,86,519.9,86,520.3,86z M525.1,135c-0.2,0.8-0.5,1.3-1,1.6c-0.6,0.4-1.5,0.4-2.6,0.1
		c-0.3-0.1-2.9-1.4-2.6-3.4c0-0.4,0.3-0.8,0.7-1.1c0.5-0.4,1.2-0.6,2-0.6c0.3,0,0.7,0,1,0.1C523.6,132,525.5,133.1,525.1,135z
		 M525.7,118.4c0.8,0.3,1.4,0.8,1.8,1.2c0.4,0.5,0.6,0.8,0.5,1.4c-0.1,0.6-0.2,1-0.7,1.4c-0.4,0.3-1.1,0.6-1.8,0.8
		c-0.3,0.1-0.6,0.1-1,0.1c-0.4,0-0.9,0.1-1.4,0.1c-0.4,0-0.7,0-1.2,0l-1.5,0c-0.4,0-0.8,0-1.2,0l-0.1-6.5c0.5,0.1,1,0.2,1.6,0.3
		l1.3,0.3c0.4,0.1,0.8,0.2,1.2,0.3C524.3,117.8,525.1,118.1,525.7,118.4z M530.1,103.8c-0.4,0.7-1.3,1.2-1.7,1.5
		c-0.7,0.4-1.5,0.7-2.4,1.1c-0.4,0.1-0.8,0.3-1.3,0.4l-1.5,0.5c-0.9,0.3-1.8,0.6-2.7,0.9c-0.2,0.1-0.4,0.1-0.6,0.1
		c-0.2,0-0.4,0.1-0.5,0.1l-0.1-7.2c0.6-0.1,1.2-0.2,2-0.4l1.5-0.2c0.5-0.1,0.9-0.1,1.4-0.2c1-0.1,1.9-0.2,2.7-0.1
		c0.5,0,1.6,0.1,2.4,0.5c0.7,0.3,1,0.6,1.2,1.2l0,0.1C530.5,102.8,530.4,103.2,530.1,103.8z M334.3,36c-0.3-1.1-0.2-2.4,1-2.9
		c1.7-0.8,2.6,0.9,3.6,2c2.2,2.4,5.4,4.3,8.7,4.5c3,0.2,5.6-1.2,7-3.9c0.7-1.3,1-2.7,1.1-4.1c0.1-1.2-0.2-2.9,0.6-4
		c0.7-1,2.1-1.2,3.1-0.5c0.8,0.5,1.1,1.7,1.4,2.5c0.9,3,0.8,6.3-0.3,9.2c-2.2,5.7-8.3,8.6-14.2,7.6C340.8,45.5,335.8,41.4,334.3,36z
		 M316.5,54.5c6.3,0.5,11.8-3.6,13.3-9.7c0.7-2.9,0.5-5.9-0.5-8.7c-0.3-1-1-1.8-2.1-1.8c-1.2-0.1-2.2,0.8-2.3,2
		c-0.2,1.5,0,3-0.3,4.5c-0.2,1.4-0.7,2.7-1.4,3.9c-1.4,2.2-3.8,3.4-6.4,3.3c-3.3-0.1-6.3-2.1-8.4-4.6c-0.9-1.1-1.9-2.7-3.6-1.7
		c-1,0.6-1.1,1.8-0.8,2.8C305.6,50,310.9,54.1,316.5,54.5z M350.2,282.3l-1.1-16.6l14.9-1l0.3,5.2l-9.6,0.6l0.4,6.1l9.6-0.6l0.3,5.2
		L350.2,282.3z M383,280.1l14.9-1l-0.3-5.2l-9.6,0.6l-0.4-6.1l9.6-0.6l-0.3-5.2l-14.9,1L383,280.1z M376.6,263.9l-5.2,0.3l1.7,26.6
		l25.4-1.7l-0.3-5.2l-20.2,1.3L376.6,263.9z M345.2,287.4l-1.4-21.4l-5.2,0.3l1.7,26.6l25.4-1.7l-0.3-5.2L345.2,287.4z M312.5,289.6
		l-1.4-21.4l-5.2,0.3l1.7,26.6l25.4-1.7l-0.3-5.2L312.5,289.6z M299.5,285.6l-0.3-5.2l-9.6,0.6l-0.4-6.1l9.6-0.6l-0.3-5.2l-14.9,1
		l1.1,16.6L299.5,285.6z M332.3,283.4l-0.3-5.2l-9.6,0.6l-0.4-6.1l9.6-0.6l-0.3-5.2l-14.9,1l1.1,16.6L332.3,283.4z M279.7,291.7
		l-1.4-21.4l-5.2,0.3l1.7,26.6l25.4-1.7l-0.3-5.2L279.7,291.7z M503.1,105.1c0,0.4,0,0.8-0.2,1.2c0,0.1-0.1,0.2-0.1,0.3
		c-0.1,0.3-0.3,0.7-0.6,0.9c-0.4,0.5-0.9,0.8-1.6,0.8c-0.6,0-1.2-0.1-1.5-0.5c-0.4-0.3-0.6-0.8-0.5-1.5c0.1-0.4,0.2-0.8,0.4-1.2
		c0.2-0.4,0.4-0.7,0.7-1c0.2-0.2,0.4-0.3,0.7-0.5c0.3-0.1,0.5-0.2,0.8-0.3c0.1,0,0.2,0,0.3,0c0.1,0,0.2,0,0.3,0
		c0.2,0,0.4,0.1,0.6,0.2C502.9,104.1,503.1,104.6,503.1,105.1z M511.9,104.8c0-0.2-9.5-6.9-11.2-8c-1.3-0.7-2.1,0.3-2.7,1.6
		c0,0.1-5.8,13-14.3,25.3l-0.2,0.3c0,0,0.2,0.1,0.3,0.2c0.7,0.3,4.6,2.4,17.8-6.7c2.8-1.9,10.3-9.1,10.6-9.5
		C513,106.9,512.9,105.5,511.9,104.8z M509.2,107c-0.6,0.7-1.8,1.9-3.3,3.4c-0.3-0.4-0.7-0.6-1.2-0.6c-0.8-0.1-1.7,0.2-2.2,0.6
		c-0.9,0.6-1.9,2.1-1.2,3.2c0.1,0.2,0.3,0.4,0.5,0.5c-4.4,3.6-9.9,7.3-14.1,7.5c1.7-1.9,3.2-4.2,4.7-6.6c0.3,0.4,0.6,0.7,1.1,0.8
		c1.2,0.4,2.6-0.3,3.4-1.2c0.6-0.7,1-1.9,0.6-2.8c-0.3-0.5-0.7-0.9-1.3-1c-0.5-0.1-0.9-0.1-1.4,0c2.6-4.9,4.6-9.4,5.5-11
		c2.1,1.2,7.6,5.5,9,6.6C509.4,106.6,509.3,106.9,509.2,107z M510.5,67c-0.8-0.7-0.9-2-0.2-2.8l6.8-7.8c0.7-0.8,2-0.9,2.8-0.2
		c0.8,0.7,0.9,2,0.2,2.8l-6.8,7.8l-0.1,0.1C512.5,67.7,511.3,67.7,510.5,67z M498.1,62.7c1.1,0,2-0.9,2-2l0-12.2c0-1.1-0.9-2-2-2
		c-1.1,0-2,0.9-2,2l0,12.2c0,0.5,0.2,1,0.5,1.3C497.1,62.5,497.6,62.7,498.1,62.7z M483,66.8L483,66.8c0.8,0.8,2,0.9,2.8,0.2
		c0.8-0.7,0.9-2,0.2-2.8l-6.8-7.8c-0.7-0.8-2-0.9-2.8-0.2c-0.8,0.7-0.9,2-0.2,2.8L483,66.8z"/>
</g>
</svg>
